HIERARCHY
ROOT Hips
{
     OFFSET 59.29400 96.16910 9.37493
     CHANNELS 6 Xposition Yposition Zposition Zrotation Xrotation Yrotation
     JOINT Spine
     {
          OFFSET 0.00000 11.89050 0.00000
          CHANNELS 3 Zrotation Xrotation Yrotation
          JOINT Spine1
          {
               OFFSET -0.00000 25.65740 0.12766
               CHANNELS 3 Zrotation Xrotation Yrotation
               JOINT HEad
               {
                    OFFSET -0.00000 8.73416 0.01134
                    CHANNELS 3 Zrotation Xrotation Yrotation
                    End Site
                    {
                         OFFSET -0.29000 12.77420 2.51395
                    }
               }
               JOINT LeftShoulder1
               {
                    OFFSET 8.99000 -0.36225 -0.22000
                    CHANNELS 3 Zrotation Xrotation Yrotation
                    JOINT LeftArm
                    {
                         OFFSET 10.28270 -0.00338 0.32212
                         CHANNELS 3 Zrotation Xrotation Yrotation
                         JOINT LeftForeArm
                         {
                              OFFSET 32.76690 0.09914 -1.42434
                              CHANNELS 3 Zrotation Xrotation Yrotation
                              JOINT LeftHand
                              {
                                   OFFSET 27.56430 0.08536 1.02216
                                   CHANNELS 3 Zrotation Xrotation Yrotation
                                   End Site
                                   {
                                        OFFSET 16.74430 -0.60000 1.50291
                                   }
                              }
                         }
                    }
               }
               JOINT RightShoulder
               {
                    OFFSET -8.99000 -0.36225 -0.22000
                    CHANNELS 3 Zrotation Xrotation Yrotation
                    JOINT RightArm
                    {
                         OFFSET -10.28270 -0.00338 0.32212
                         CHANNELS 3 Zrotation Xrotation Yrotation
                         JOINT RightForeArm
                         {
                              OFFSET -32.89710 0.09914 -1.42434
                              CHANNELS 3 Zrotation Xrotation Yrotation
                              JOINT RightHand
                              {
                                   OFFSET -27.49210 0.08536 1.02216
                                   CHANNELS 3 Zrotation Xrotation Yrotation
                                   End Site
                                   {
                                        OFFSET -16.63120 -0.60000 1.50291
                                   }
                              }
                         }
                    }
               }
          }
     }
     JOINT LeftUpLeg
     {
          OFFSET 8.94580 -8.66707 0.10165
          CHANNELS 3 Zrotation Xrotation Yrotation
          JOINT LeftLeg
          {
               OFFSET 0.00000 -44.42270 1.37270
               CHANNELS 3 Zrotation Xrotation Yrotation
               JOINT LeftFoot
               {
                    OFFSET -0.25355 -42.09240 -1.46059
                    CHANNELS 3 Zrotation Xrotation Yrotation
                    JOINT LeftToes
                    {
                         OFFSET -0.04000 -4.41509 8.49910
                         CHANNELS 3 Zrotation Xrotation Yrotation
                         End Site
                         {
                              OFFSET 0.08000 -0.04745 9.77979
                         }
                    }
               }
          }
     }
     JOINT RightUpLeg
     {
          OFFSET -8.94580 -8.66707 0.10165
          CHANNELS 3 Zrotation Xrotation Yrotation
          JOINT RightLeg
          {
               OFFSET -0.00000 -44.42270 1.37270
               CHANNELS 3 Zrotation Xrotation Yrotation
               JOINT RightFoot
               {
                    OFFSET 0.25355 -42.09240 -1.46059
                    CHANNELS 3 Zrotation Xrotation Yrotation
                    JOINT RightToes
                    {
                         OFFSET 0.04000 -4.41509 8.49910
                         CHANNELS 3 Zrotation Xrotation Yrotation
                         End Site
                         {
                              OFFSET -0.08000 -0.13745 9.77979
                         }
                    }
               }
          }
     }
}
MOTION
Frames: 20
Frame Time: 0.01667
52.69660 95.28410 27.09100 -5.51736 17.94390 -120.58100 -10.46360 13.04280 0.79320 -0.08648 26.89310 -3.74347 12.93710 14.70750 -7.28701 -0.00000 0.00000 -0.00000 -55.33170 -20.56030 -71.52840 -32.33270 12.41190 -79.36250 19.23950 6.37224 -17.26800 24.08470 0.29021 -1.21195 48.12390 -36.92880 42.72160 -8.16801 17.43200 78.86220 17.68830 11.54240 5.95727 21.21680 -1.73922 -35.15320 -25.21640 27.74380 54.98220 -5.48719 -0.30263 0.33914 -14.63940 -50.72380 -83.69210 -25.98140 7.09513 16.67240 28.39910 1.52092 13.11800 -2.38757 -6.04041 -0.12708 12.08280 49.65080 -27.42860 
53.87870 95.44160 25.58390 -7.69249 16.42540 -116.13500 -9.97921 13.01900 1.03998 -0.73728 26.60530 -2.89258 11.76330 14.48260 -6.68154 -0.00000 0.00000 -0.00000 -55.75950 -21.33550 -71.25360 -31.86280 13.49330 -79.48750 18.99740 6.47580 -16.92710 22.95370 0.38593 -0.80251 51.77160 -37.46800 46.83010 -6.37959 18.40780 81.01850 17.44300 11.54040 6.08517 20.94110 -1.88830 -35.14660 -24.24550 26.66750 50.72310 -6.22123 0.36416 0.41847 -13.52940 -49.86240 -82.52640 -26.42860 8.88498 17.19750 29.09440 1.57599 11.47050 -2.31737 -6.19737 -0.13231 14.32360 48.66960 -31.63990 
55.02260 95.59600 24.02850 -9.59789 14.83350 -111.76600 -9.32671 13.00810 1.13740 -1.40588 26.35860 -2.19688 10.77370 14.28170 -6.21075 -0.00000 0.00000 -0.00000 -56.11820 -22.11180 -71.02990 -31.33190 14.43280 -79.61060 18.72390 6.58264 -16.59230 21.88970 0.49220 -0.31686 55.10080 -37.48610 50.54220 -4.60931 19.44690 82.78640 17.30910 11.57590 6.38948 20.81910 -2.12784 -34.98110 -23.37860 25.40320 46.89610 -7.06916 1.37697 0.53416 -12.34310 -48.93570 -81.16930 -26.68310 10.44270 17.80700 30.03090 1.86262 9.02877 -2.27592 -6.57989 -0.14301 17.50760 46.27850 -38.23590 
56.11310 95.74330 22.43410 -11.23820 13.20560 -107.51900 -8.51685 12.99050 1.11365 -2.08616 26.13530 -1.59012 9.96239 14.11610 -5.90561 -0.00000 0.00000 -0.00000 -56.39700 -22.83020 -70.84920 -30.88420 15.10340 -79.70780 18.36710 6.69397 -16.31440 20.83290 0.59351 0.18786 58.15450 -37.13630 53.86090 -2.85447 20.50600 84.23040 17.21430 11.62930 6.78873 20.79670 -2.42977 -34.67520 -22.60730 23.98460 43.58890 -7.99738 2.68253 0.69041 -11.03250 -47.84850 -79.63300 -26.80460 11.81890 18.47010 31.12900 2.34907 6.21302 -2.30311 -7.29861 -0.16205 20.25290 42.16580 -45.41730 
57.13810 95.85640 20.79770 -12.64170 11.53390 -103.42100 -7.64310 12.95550 1.01455 -2.76752 25.93030 -1.02634 9.23684 13.94810 -5.72759 -0.00000 0.00000 -0.00000 -56.69260 -23.47610 -70.70690 -30.55520 15.55330 -79.77810 17.92060 6.80767 -16.11420 19.74400 0.67010 0.62738 60.99990 -36.54090 56.81340 -1.08505 21.55780 85.43220 17.07400 11.67410 7.16626 20.79360 -2.78735 -34.27440 -21.97000 22.47670 40.79250 -8.94785 4.11823 0.87934 -9.57617 -46.51370 -77.95900 -26.94250 13.11690 19.13260 32.35640 2.89137 3.52231 -2.41410 -8.38075 -0.19188 21.71090 37.19990 -51.50950 
58.09730 95.88580 19.11160 -13.81550 9.81073 -99.50670 -6.86036 12.89970 0.90579 -3.43262 25.74410 -0.48205 8.47305 13.73720 -5.60094 -0.00000 0.00000 -0.00000 -57.17890 -24.10940 -70.58490 -30.27600 16.02340 -79.82280 17.51100 6.90309 -15.97890 18.64460 0.71654 0.96549 63.66240 -35.82840 59.41930 0.66726 22.60790 86.48310 16.83780 11.69380 7.45099 20.75380 -3.26911 -33.82530 -21.54540 21.02740 38.50550 -9.88464 5.51423 1.08731 -8.07746 -44.98680 -76.27350 -27.20950 14.43200 19.71440 33.66520 3.31162 1.32226 -2.60752 -9.76766 -0.23428 22.01540 32.52860 -55.84640 
58.99800 95.79240 17.38400 -14.76880 8.01516 -95.81290 -6.33515 12.83790 0.86403 -4.04062 25.57600 0.05836 7.64041 13.51360 -5.49280 -0.00000 0.00000 -0.00000 -57.93010 -24.77300 -70.44640 -29.96710 16.70230 -79.83910 17.30190 6.95358 -15.89500 17.62080 0.74121 1.21732 66.09740 -35.12830 61.67640 2.32315 23.68200 87.45530 16.47730 11.68740 7.65731 20.60400 -3.94233 -33.29390 -21.36150 19.79960 36.74880 -10.74610 6.80750 1.29956 -6.72425 -43.49510 -74.70830 -27.66100 15.83530 20.11120 34.93790 3.50875 -0.22182 -2.86172 -11.34550 -0.28960 21.60010 28.72930 -58.41400 
59.84380 95.58200 15.64390 -15.52240 6.14853 -92.36310 -6.14795 12.80060 0.94737 -4.59791 25.43490 0.61745 6.84061 13.36060 -5.44145 -0.00000 0.00000 -0.00000 -58.82930 -25.43390 -70.24450 -29.64730 17.53710 -79.82370 17.32790 6.95344 -15.86460 16.75180 0.75130 1.39333 68.26390 -34.52540 63.58280 3.81099 24.79300 88.38680 16.01030 11.66690 7.85338 20.29850 -4.77978 -32.60250 -21.36850 18.83830 35.51570 -11.39250 8.05056 1.49695 -5.65764 -42.29690 -73.29420 -28.26230 17.37340 20.23810 36.04640 3.47166 -1.13174 -3.14858 -12.99180 -0.35620 20.78150 25.80650 -59.48020 
60.63170 95.32580 13.94590 -16.09490 4.37312 -89.13670 -6.07387 12.78540 1.11843 -5.06998 25.32850 1.23206 6.17357 13.30170 -5.48604 -0.00000 0.00000 -0.00000 -59.71110 -26.05750 -69.94510 -29.46010 18.36910 -79.76000 17.47970 6.92045 -15.90160 16.05950 0.74545 1.46921 70.20350 -34.02070 65.19010 5.07473 25.91860 89.29650 15.54700 11.64880 8.07402 19.98560 -5.67837 -31.73680 -21.48400 18.02050 34.70420 -11.70820 9.35021 1.66464 -4.86035 -41.42850 -72.01280 -28.74860 19.03560 20.02630 36.91950 3.24777 -1.59159 -3.45334 -14.60000 -0.43123 19.74960 23.45720 -59.51740 
61.37490 95.04760 12.30950 -16.54730 2.75884 -86.19050 -6.07094 12.80990 1.38268 -5.45624 25.29350 1.93489 5.62790 13.25400 -5.57908 -0.00000 0.00000 -0.00000 -60.51730 -26.68660 -69.53550 -29.52250 19.14080 -79.65530 17.63970 6.87615 -16.00220 15.50240 0.72300 1.43576 72.01140 -33.53000 66.60560 6.06368 26.99240 90.19070 15.23280 11.64500 8.29230 19.71060 -6.57128 -30.72210 -21.67170 17.36280 34.20870 -11.79070 10.75060 1.81183 -4.20449 -40.67050 -70.94260 -28.96620 20.70710 19.54760 37.55910 2.92532 -1.88801 -3.76695 -16.12500 -0.51270 18.67530 21.35860 -59.16030 
62.09080 94.75810 10.74490 -16.94580 1.31528 -83.61280 -6.12913 12.89400 1.72754 -5.77674 25.36930 2.71285 5.10536 13.10810 -5.56808 -0.00000 0.00000 -0.00000 -61.28500 -27.45310 -68.98900 -29.78390 19.92690 -79.58790 17.77590 6.83447 -16.11220 14.99760 0.70151 1.39717 73.74230 -32.96460 67.92410 6.75105 27.92630 91.05620 15.13260 11.65760 8.46343 19.48790 -7.39482 -29.65020 -21.92750 16.84420 34.00400 -11.77840 12.35880 1.96465 -3.62297 -39.85000 -70.25870 -28.88110 22.21620 18.97140 38.03150 2.60850 -2.28468 -4.08577 -17.61080 -0.60192 17.73210 19.30090 -59.07470 
62.78360 94.47880 9.26965 -17.30550 0.03677 -81.43870 -6.16549 13.02460 2.08049 -6.04659 25.54490 3.49076 4.47265 12.83390 -5.26850 -0.00000 0.00000 -0.00000 -62.06410 -28.54410 -68.24610 -30.11550 20.86560 -79.64500 17.91280 6.80192 -16.16050 14.45230 0.70817 1.52735 75.40920 -32.27660 69.19890 7.15020 28.67180 91.87020 15.21120 11.67700 8.53998 19.35290 -8.10523 -28.69840 -22.27290 16.29590 34.16960 -11.70450 14.30450 2.13798 -3.15767 -39.02720 -70.07200 -28.52860 23.41270 18.45290 38.41340 2.36945 -2.86546 -4.40496 -19.11580 -0.70108 16.96240 17.07660 -59.70020 
63.44140 94.20990 7.89089 -17.58250 -1.12989 -79.64460 -6.16688 13.17420 2.38737 -6.29422 25.77070 4.18052 3.62932 12.48270 -4.59203 -0.00000 0.00000 -0.00000 -62.85290 -30.07250 -67.26810 -30.44620 22.02950 -79.83330 18.05880 6.78198 -16.11660 13.79500 0.74580 1.87315 77.03150 -31.40590 70.45390 7.31072 29.25030 92.62110 15.40440 11.68970 8.47530 19.28160 -8.73639 -28.06570 -22.74300 15.58300 34.81730 -11.58060 16.52730 2.32496 -2.85313 -38.36160 -70.26940 -28.02640 24.23320 18.08460 38.72070 2.21653 -3.51891 -4.71142 -20.62880 -0.80842 16.21400 14.49030 -60.99140 
64.04310 93.94230 6.60762 -17.73280 -2.24441 -78.15530 -6.16509 13.31670 2.63515 -6.53587 25.99140 4.73873 2.58802 12.09580 -3.60545 -0.00000 0.00000 -0.00000 -63.60650 -32.00770 -66.08520 -30.83730 23.38570 -80.03670 18.18690 6.77369 -16.02020 13.02550 0.78855 2.30206 78.59020 -30.28360 71.67020 7.29286 29.71240 93.31810 15.66070 11.68890 8.26849 19.22150 -9.34300 -27.85190 -23.34270 14.68790 35.92570 -11.42920 18.76620 2.50288 -2.69216 -37.98300 -70.44950 -27.50570 24.73670 17.88800 38.90970 2.10769 -4.08084 -4.99078 -22.08350 -0.91817 15.29170 11.55070 -62.48740 
64.57150 93.67510 5.41669 -17.75070 -3.33025 -76.88200 -6.19122 13.43480 2.83520 -6.77546 26.16910 5.17007 1.46916 11.64830 -2.44647 -0.00000 0.00000 -0.00000 -64.29040 -34.28810 -64.77800 -31.50340 24.90280 -80.02830 18.27090 6.76595 -15.97240 12.21970 0.81518 2.67270 80.00330 -28.91170 72.78850 7.16540 30.09050 93.96880 15.94660 11.67900 7.98349 19.14680 -9.95030 -27.97200 -24.02950 13.71030 37.32070 -11.26620 20.74700 2.64878 -2.64252 -37.99950 -70.13840 -27.05590 25.05200 17.82610 38.94040 1.99439 -4.45120 -5.23964 -23.42190 -1.02511 14.18000 8.56260 -63.70760 
65.02270 93.42760 4.32063 -17.66450 -4.34308 -75.75550 -6.23675 13.51380 2.99676 -7.00069 26.27970 5.50561 0.40132 11.09450 -1.22327 -0.00000 0.00000 -0.00000 -64.83590 -36.82730 -63.42860 -32.62040 26.50550 -79.63050 18.29720 6.74949 -16.04590 11.45440 0.82612 2.95920 81.20480 -27.37980 73.75250 7.01766 30.39670 94.55770 16.24850 11.67170 7.71372 19.10040 -10.54650 -28.17790 -24.72810 12.81240 38.82630 -11.07830 22.33250 2.74685 -2.69115 -38.43750 -69.21970 -26.68590 25.29130 17.78790 38.83130 1.86616 -4.60249 -5.46512 -24.59550 -1.12552 13.06670 5.96353 -64.44060 
65.39460 93.22920 3.33564 -17.53690 -5.21215 -74.74700 -6.27912 13.55120 3.12762 -7.19674 26.32100 5.79484 -0.56275 10.45530 -0.00412 -0.00000 0.00000 -0.00000 -65.08900 -39.39620 -62.09060 -34.06020 27.94630 -78.91230 18.24530 6.73400 -16.20400 10.77670 0.83296 3.21553 82.17890 -25.81210 74.55320 6.89022 30.63850 95.07890 16.54010 11.67640 7.54025 19.15390 -11.08030 -28.20760 -25.39120 12.17220 40.41830 -10.80340 23.45160 2.77441 -2.79988 -39.10900 -68.06280 -26.36900 25.52290 17.63980 38.67110 1.76133 -4.54631 -5.66931 -25.54080 -1.21399 12.16440 4.04132 -64.76750 
65.69470 93.10880 2.46258 -17.43270 -5.91107 -73.88290 -6.33157 13.56630 3.25994 -7.36558 26.32500 6.08931 -1.44094 9.83865 1.15487 -0.00000 0.00000 -0.00000 -64.94720 -41.70990 -60.80100 -35.42750 28.96920 -78.16210 18.11060 6.73535 -16.35330 10.20950 0.84488 3.49384 82.94230 -24.30420 75.23630 6.70712 30.81730 95.57940 16.76230 11.69070 7.48217 19.37110 -11.45640 -27.96370 -26.03550 11.81340 42.29820 -10.35650 24.06920 2.70535 -2.87796 -39.61980 -67.21080 -26.09910 25.74900 17.32740 38.57110 1.72660 -4.32838 -5.85623 -26.20190 -1.28564 11.57280 2.81944 -64.93480 
65.92180 93.07400 1.68831 -17.37200 -6.47821 -73.18920 -6.44070 13.58140 3.42346 -7.52933 26.32750 6.41242 -2.25684 9.35640 2.20097 -0.00000 0.00000 -0.00000 -64.50280 -43.63430 -59.60640 -36.38270 29.54660 -77.65030 17.92900 6.75441 -16.44740 9.71373 0.86023 3.79283 83.56530 -22.88280 75.86180 6.39027 30.93150 96.11060 16.88720 11.70250 7.47439 19.75410 -11.62220 -27.52000 -26.72700 11.67280 44.77570 -9.69492 24.18300 2.53057 -2.81023 -39.56650 -67.00310 -25.89300 25.93980 16.93590 38.58370 1.76129 -4.06901 -6.02932 -26.61620 -1.34149 11.26650 2.14457 -65.13980 
66.06270 93.11030 0.99671 -17.31210 -6.99165 -72.63870 -6.66054 13.60280 3.62834 -7.71053 26.33190 6.74944 -2.99537 9.03848 3.09217 -0.00000 0.00000 -0.00000 -63.95430 -45.18900 -58.56030 -36.87540 29.81490 -77.45910 17.75480 6.77874 -16.50000 9.20657 0.86688 4.04768 84.13170 -21.51740 76.44410 5.99764 30.98480 96.64980 16.94920 11.70270 7.43389 20.22400 -11.62130 -27.00000 -27.52380 11.71800 48.04310 -8.80602 23.85310 2.25926 -2.49248 -38.73620 -67.41590 -25.76820 26.07050 16.62430 38.67550 1.80728 -3.93509 -6.19049 -26.91420 -1.38899 11.16060 1.82954 -65.42460 
